PathFileType        4      (X/Y/Z)      C:\Users\pc\Desktop\IMUTRC\Sujet_02\Sujet_02_velo_80.trc         
DataRate	CameraRate	NumFrames	NumMarkers	Units	OrigDataRate	OrigDataStartFrame	OrigNumFrames
60.0	60.0	4	64	mm	60.0	1	945
Frame#	Time	pHipOrigin			pRightASI			pLeftASI			pRightCSI			pLeftCSI			pRightIschialTub			pLeftIschialTub			pSacrum			pL5SpinalProcess			pL3SpinalProcess			pT12SpinalProcess			pIJ			pT4SpinalProcess			pT8SpinalProcess			pPX			pC7SpinalProcess			pTopOfHead			pRightAuricularis			pLeftAuricularis			pBackOfHead			pRightAcromion			pLeftAcromion			pRightArmLatEpicondyle			pRightArmMedEpicondyle			pLeftArmLatEpicondyle			pLeftArmMedEpicondyle			pRightUlnarStyloid			pRightRadialStyloid			pRightOlecranon			pLeftUlnarStyloid			pLeftRadialStyloid			pLeftOlecranon			pRightTopOfHand			pRightPinky			pRightBallHand			pLeftTopOfHand			pLeftPinky			pLeftBallHand			pRightGreaterTrochanter			pRightKneeLatEpicondyle			pRightKneeMedEpicondyle			pRightPatella			pLeftGreaterTrochanter			pLeftKneeLatEpicondyle			pLeftKneeMedEpicondyle			pLeftPatella			pRightTibialTub			pRightLatMalleolus			pRightMedMalleolus			pLeftTibialTub			pLeftLatMalleolus			pLeftMedMalleolus			pRightHeelFoot			pRightFirstMetatarsal			pRightFifthMetatarsal			pRightPivotFoot			pRightHeelCenter			pRightToe			pLeftHeelFoot			pLeftFirstMetatarsal			pLeftFifthMetatarsal			pLeftPivotFoot			pLeftHeelCenter			pLeftToe			
		X1	Y1	Z1	X2	Y2	Z2	X3	Y3	Z3	X4	Y4	Z4	X5	Y5	Z5	X6	Y6	Z6	X7	Y7	Z7	X8	Y8	Z8	X9	Y9	Z9	X10	Y10	Z10	X11	Y11	Z11	X12	Y12	Z12	X13	Y13	Z13	X14	Y14	Z14	X15	Y15	Z15	X16	Y16	Z16	X17	Y17	Z17	X18	Y18	Z18	X19	Y19	Z19	X20	Y20	Z20	X21	Y21	Z21	X22	Y22	Z22	X23	Y23	Z23	X24	Y24	Z24	X25	Y25	Z25	X26	Y26	Z26	X27	Y27	Z27	X28	Y28	Z28	X29	Y29	Z29	X30	Y30	Z30	X31	Y31	Z31	X32	Y32	Z32	X33	Y33	Z33	X34	Y34	Z34	X35	Y35	Z35	X36	Y36	Z36	X37	Y37	Z37	X38	Y38	Z38	X39	Y39	Z39	X40	Y40	Z40	X41	Y41	Z41	X42	Y42	Z42	X43	Y43	Z43	X44	Y44	Z44	X45	Y45	Z45	X46	Y46	Z46	X47	Y47	Z47	X48	Y48	Z48	X49	Y49	Z49	X50	Y50	Z50	X51	Y51	Z51	X52	Y52	Z52	X53	Y53	Z53	X54	Y54	Z54	X55	Y55	Z55	X56	Y56	Z56	X57	Y57	Z57	X58	Y58	Z58	X59	Y59	Z59	X60	Y60	Z60	X61	Y61	Z61	X62	Y62	Z62	X63	Y63	Z63	X64	Y64	Z64	
1	0.0	0.0	1250.02096	7.654170837655508E-14	59.966190000000005	1367.57956	140.1660200000001	49.84936999999999	1361.64511	-148.64380999999992	1.808590000000007	1430.42819	114.78919000000009	-6.4431200000000075	1425.62412	-121.91052999999991	-47.64513999999999	1182.87691	62.33997000000007	-51.82752	1180.44661	-56.06640999999993	-73.53064	1261.94637	2.317260000000082	-46.51477	1377.01816	0.7347400000000871	3.3345900000000004	1488.07712	7.630010000000092	59.57056	1584.27171	17.74683000000009	323.90786	1610.32677	17.577270000000077	210.19252	1718.16418	39.50647000000009	132.70558	1665.77147	29.841800000000095	221.15712	1534.53538	3.504150000000081	263.09389	1748.85375	45.667000000000094	501.54569	1763.71813	56.68811000000008	413.8854	1727.94189	110.49378000000007	419.14163	1760.94872	-14.468749999999917	404.55984	1792.31652	60.13575000000009	232.17824000000002	1694.31334	236.3606100000001	260.60707	1740.82812	-163.96033999999992	289.14894	1409.34677	308.1391800000001	252.58144000000001	1384.25253	260.83315000000005	347.58913	1457.5571	-186.62427999999994	305.42629	1436.02353	-142.37024999999994	401.84695	1148.85274	349.79336000000006	437.3406	1163.49104	305.59585000000004	250.82936000000004	1397.19528	307.06533000000013	458.98721	1202.88448	-242.01246999999995	498.60672	1219.3879	-202.22339999999994	304.40896	1445.9708	-184.75916999999995	581.689	1062.88801	311.53029	501.03702	1079.10884	350.47158	438.92312	1121.44124	333.79861000000005	644.14201	1151.28303	-155.03040999999996	573.66337	1147.38325	-212.39673999999997	504.0325	1179.99446	-216.97474999999994	14.58179000000001	1249.2297	181.3680500000001	438.13186	1123.19331	257.10292000000004	459.66544	1121.21516	173.22938000000002	459.89151	1169.48201	213.86623000000006	2.0346699999999895	1214.13167	-176.45093999999992	259.58974	847.10015	-174.41626999999997	277.78871	852.18682	-89.86450999999995	306.16103	879.76788	-139.09216999999998	486.28568	1073.5135	216.01393000000002	258.74196	707.38628	184.19398000000004	271.74123	711.51213	117.16297000000003	316.05178	801.15057	-134.00549999999998	124.84949999999999	413.77237	-149.37854999999996	130.50135	414.33755	-81.21716999999998	192.67177	614.8654	101.50733000000002	365.10989	550.99943	128.97535	326.67727	539.69571	207.19704	367.5967	535.96549	176.11183	229.06972	597.45768	116.88038000000003	439.43179	504.88028	206.85792	20.233639999999994	346.85439	-93.82080999999998	163.67775	228.78712	-101.33778	140.95728	238.33876	-185.71997999999996	170.91212	217.82252	-149.09596	51.20580999999999	319.04726	-105.35058999999998	233.19557	166.10804	-171.75990000000002	
2	0.017	0.0	1250.02096	7.654170837655508E-14	59.683600000000006	1368.3143	139.6008400000001	49.510259999999995	1361.13644	-149.1524799999999	1.4129600000000069	1430.93686	114.05445000000009	-6.951780000000007	1425.05893	-122.64526999999991	-47.47558999999999	1182.98995	62.62256000000007	-51.65796	1180.05098	-55.72729999999993	-73.58716	1261.77682	2.317260000000082	-46.85388	1376.8486	0.16956000000008717	2.5998500000000004	1488.13364	6.782230000000092	58.49671	1584.49779	16.786010000000093	322.72097	1611.68321	17.18164000000008	208.49696	1719.06847	38.65869000000009	131.23609	1666.33666	28.880980000000097	220.30934	1535.43968	2.9389700000000807	261.2853	1749.98412	44.988770000000095	499.79361	1765.1311	55.78382000000008	412.24637	1729.24181	109.75904000000007	417.22	1762.36169	-15.203489999999917	402.80777	1793.67297	59.51404000000009	230.82179000000002	1694.70897	235.5693500000001	259.30715	1742.01501	-164.63855999999993	288.30117	1409.7424	306.89577000000014	251.67714000000004	1384.64816	259.7592900000001	346.5718	1458.63096	-187.35901999999993	304.52199	1437.1539	-142.99194999999995	401.11221	1149.24837	348.09780000000006	436.54935	1163.94319	303.84377000000006	250.03810000000001	1397.59091	305.9349600000001	457.96988	1204.12789	-243.31238999999994	497.64591	1220.57479	-203.52332999999993	303.44814	1447.15769	-185.38086999999993	580.95426	1063.34016	309.83474	500.30228	1079.50447	348.77602	438.18838	1121.83687	332.10305000000005	643.06816	1152.24385	-156.38684999999998	572.533	1148.45711	-213.69666999999998	502.95865	1181.18135	-218.27466999999993	14.69483000000001	1250.30355	181.3680500000001	434.85379	1113.18953	257.1594400000001	455.93521	1109.57234	173.28590000000003	457.68729	1158.34785	213.35756000000003	2.5998499999999893	1212.49263	-175.94226999999992	268.011	851.22601	-167.97315999999998	286.15346	858.06475	-83.59094999999996	313.90407	885.41974	-133.21423999999996	485.04227	1064.01838	216.57912000000002	272.58901	688.90471	184.8722	285.87087	693.31316	117.84119000000003	321.42104	804.65472	-129.08838999999998	110.60681999999998	428.1846	-154.29565999999997	116.14564	426.71512	-86.07775999999998	211.37941	592.9362	104.05067000000003	386.30435	537.26542	133.66639	347.98476	525.9617	211.94459	389.18679	523.36185	181.08546	248.39906	577.45011	119.93238000000001	461.92618	496.34598	212.79237	3.3911099999999936	365.78811	-99.47265999999998	141.9181	241.95595	-106.76356	119.98889999999999	252.80751	-191.20227999999997	148.86988	230.93483	-154.52174	33.23290999999999	336.79409	-110.94592999999999	209.06215	176.95961	-177.18568	
3	0.033	0.0	1250.02096	7.654170837655508E-14	59.40100000000001	1369.04904	139.0921700000001	49.22765999999999	1360.62778	-149.6611399999999	0.9608200000000069	1431.44553	113.26319000000008	-7.403930000000008	1424.55026	-123.38000999999991	-47.30602999999999	1183.1595	62.90516000000007	-51.48841	1179.71187	-55.44470999999993	-73.58716	1261.60726	2.260740000000082	-47.193	1376.73556	-0.3391099999999128	1.9216300000000004	1488.13364	5.990970000000091	57.42286	1584.72386	15.825200000000095	321.53408	1613.03966	16.78601000000008	206.80141	1719.91625	37.86743000000009	129.76661	1666.90184	27.976690000000097	219.51808	1536.34397	2.4303000000000807	259.4767	1751.1145	44.31055000000009	498.04154	1766.48754	54.87952000000008	410.60733	1730.54174	108.96778000000008	415.35489	1763.83117	-15.938229999999917	401.05569	1795.02942	58.83582000000008	229.40883000000002	1695.16112	234.7780900000001	258.00722	1743.2019	-165.3167799999999	287.50991	1410.13803	305.70888000000014	250.71633000000003	1385.04379	258.62892000000005	345.55447	1459.76133	-188.03723999999994	303.6177	1438.22776	-143.61365999999995	400.37747	1149.58748	346.40224000000006	435.70157	1164.33882	302.14821000000006	249.19032000000004	1397.93002	304.80459000000013	456.89603	1205.42781	-244.61231999999995	496.62857	1221.76168	-204.82325999999995	302.43081	1448.28806	-186.00257999999994	580.21952	1063.79231	308.13918	499.56754	1079.9001	347.08047	437.39712	1122.2325	330.40749000000005	641.93779	1153.14815	-157.74329999999998	571.40263	1149.53096	-215.05310999999998	501.8848	1182.36824	-219.63111999999995	14.864380000000011	1251.3774	181.3680500000001	431.2366	1103.24226	257.32900000000006	451.92239	1098.09907	173.39894000000004	455.20047	1147.2137	212.90541000000002	3.2780799999999894	1210.91011	-175.37708999999992	276.37575	855.57794	-161.64307999999997	294.34865	864.16876	-77.37390999999995	321.53408	891.35418	-127.44934999999995	483.79886	1054.57978	217.14430000000002	286.66213	671.15788	185.60695	300.22658	675.7924	118.68897000000003	326.73379	808.32842	-124.17126999999998	96.92932999999998	443.95328	-158.98669999999998	102.24207	440.50564	-90.82531999999998	230.20009	571.17655	106.70704000000002	407.27273	523.92704	138.24439	369.06619	512.62332	216.57912	410.55081	511.21036	185.94606	267.84145	557.66862	123.09742000000001	484.30753	487.98123	218.61378	-13.281860000000007	384.89138	-105.06799999999997	120.04542	255.46388	-112.24586	99.07702999999998	267.55886	-196.74109999999996	126.82764999999999	244.32973	-160.00403999999997	15.429569999999993	354.71047	-116.54126999999997	184.8722	187.92421	-182.55494	
4	0.05	0.0	1250.02096	7.654170837655508E-14	59.23145000000001	1369.44467	138.86610000000007	48.945069999999994	1360.45822	-149.83069999999992	0.6217000000000069	1431.61508	112.92408000000009	-7.799560000000008	1424.26767	-123.71911999999992	-47.13647999999999	1183.1595	63.074710000000074	-51.37537	1179.4858	-55.275149999999925	-73.64368	1261.43771	2.260740000000082	-47.47559	1376.62253	-0.5651899999999128	1.3564500000000004	1488.13364	5.651860000000092	56.57508	1584.89342	15.429570000000094	320.62978	1614.00047	16.672970000000078	205.50148	1720.59447	37.471800000000094	128.69276	1667.29747	27.524540000000094	218.83986	1536.96568	2.2042200000000807	258.12026	1751.96227	43.971440000000094	496.74161	1767.50488	54.314330000000076	409.42044	1731.50256	108.57215000000006	413.8854	1764.90502	-16.33385999999992	399.75576	1796.04675	58.496710000000085	228.44801000000004	1695.55675	234.4389800000001	256.98989	1744.21923	-165.48633999999993	287.22731	1410.6467	305.0306600000001	250.32070000000002	1385.49594	258.06374000000005	344.87624	1460.77866	-188.26331999999994	302.99599	1439.24509	-143.78320999999994	399.8688	1149.92659	345.55447000000004	435.1929	1164.67793	301.24392000000006	248.85121000000004	1398.43869	304.1828800000001	456.16128	1206.50167	-245.34705999999994	495.89383	1222.72249	-205.55799999999994	301.8091	1449.30539	-186.28516999999994	579.65434	1064.0749	307.2914	499.05887	1080.23921	346.23269	436.88846	1122.57161	329.55971000000005	641.09001	1153.82637	-158.47803999999996	570.49833	1150.37874	-215.84436999999997	501.09354	1183.38558	-220.36585999999994	15.09046000000001	1251.49044	181.3115400000001	426.71512	1090.35603	256.36818000000005	446.94876	1084.19551	172.38160000000002	451.92239	1133.36665	211.66200000000003	4.238889999999989	1210.17537	-174.9814599999999	286.32302	862.07757	-157.34766999999997	303.78725	871.9118	-73.07849999999996	330.40749	899.26678	-123.38000999999996	481.19901	1042.54133	216.57912000000002	298.81362	651.77202	187.07643	312.60415	656.40654	120.21497000000002	333.45949	814.20635	-120.89319999999995	86.30383999999998	462.03922	-162.32129999999998	91.50355	457.06558	-94.27295999999997	246.87306	547.94742	110.32423000000001	425.64126	508.83658	143.33106	387.66079	497.75894	221.83534	429.25845	497.36331	191.37184	284.91005	536.41764	127.11024000000002	503.97599	477.86441	224.71779	-26.733280000000008	406.31192	-109.25036999999998	101.05517999999998	271.40212	-116.31518999999999	80.99108999999999	284.7405	-200.86695999999998	107.55481999999999	260.21144	-164.12988999999996	0.7347399999999925	375.00064	-120.66711999999997	163.33863	201.37562	-186.62428	
